Coordinates
version=1
nRows=14
nColumns=36
inDegrees=yes

Units are S.I. units (second, meters, Newtons, ...)
If the header above contains a line with 'inDegrees', this indicates whether rotational values are in degrees (yes) or radians (no).

endheader
time	pelvis_tilt	pelvis_list	pelvis_rotation	pelvis_tx	pelvis_ty	pelvis_tz	hip_flexion_r	hip_adduction_r	hip_rotation_r	knee_angle_r	knee_angle_r_beta	ankle_angle_r	subtalar_angle_r	mtp_angle_r	hip_flexion_l	hip_adduction_l	hip_rotation_l	knee_angle_l	knee_angle_l_beta	ankle_angle_l	subtalar_angle_l	mtp_angle_l	lumbar_extension	lumbar_bending	lumbar_rotation	arm_flex_r	arm_add_r	arm_rot_r	elbow_flex_r	pro_sup_r	arm_flex_l	arm_add_l	arm_rot_l	elbow_flex_l	pro_sup_l
      0.00000000	     -2.10049593	     -1.12517877	     -3.33662378	     -0.90885903	      1.23032341	     -0.07006413	      5.37667788	      0.26108076	     -2.13036236	     11.91920702	      0.20802941	      1.03355019	    -12.97708025	     -5.58023210	      3.46224423	     -0.54033647	     -5.54558415	      9.06974279	      0.15829687	      2.42664735	     -9.39255999	     -5.58023210	    -14.34923337	      1.58608150	     -0.24507809	      2.92373990	     -9.46844818	     10.76497440	     24.30467675	     73.59530877	      1.79062817	     -9.54900100	     10.99715566	     26.81112787	     70.69251832
      0.00416670	     -2.92660315	     -0.97291805	     -3.53081947	     -0.90969624	      1.23130178	     -0.06996757	      7.66955322	      0.50388752	     -0.56819302	     14.61131691	      0.25501559	      4.14257667	    -12.56561426	     -6.55675107	      5.38314933	      0.03009502	     -4.39559021	     10.71247935	      0.18696804	      3.22563291	    -10.18061048	     -6.55675107	    -13.85279886	      1.66051325	     -0.46301165	      3.17993375	     -7.74164450	      3.80115881	     23.40281337	     77.22511558	      1.36518578	     -7.75399499	      3.57437143	     27.12776221	     76.07899908
      0.00833330	     -3.64920330	     -0.25685614	     -3.97723136	     -0.90981583	      1.23034234	     -0.06933397	      8.47158719	     -0.12953547	     -0.89624730	     14.46890787	      0.25253008	      4.46596275	    -12.40467024	     -6.68826045	      6.14414792	      0.69383557	     -4.27405611	     10.76760556	      0.18793017	      3.55619683	    -10.74758005	     -6.68826045	    -12.90224533	      0.60391340	     -0.15309320	      2.67625932	     -6.82947160	      0.11008952	     23.57114112	     75.60040762	      1.02527564	     -7.57385967	      1.45974996	     27.46127018	     75.48292076
      0.01250000	     -3.09157477	     -0.18895361	     -4.18953406	     -0.90987713	      1.23354841	     -0.07019336	      7.81950378	     -0.37898538	     -1.10309546	     14.38989842	      0.25115111	      4.14434895	    -12.70592969	     -6.80047541	      5.23003059	      0.99441220	     -3.75476636	     10.29003420	      0.17959498	      3.46416054	    -11.33810198	     -6.80047541	    -13.72228420	      0.49160831	     -0.06779115	      2.79357363	     -6.64075178	     -1.13664957	     23.69394698	     74.37707883	      1.04739490	     -7.50062925	      0.76365539	     27.68913686	     74.54896565
      0.01666670	     -2.96776932	     -0.13007497	     -4.20377762	     -0.90915170	      1.23180957	     -0.06984718	      7.48586650	     -0.48258301	     -1.20968755	     14.10212205	      0.24612846	      3.76643892	    -12.99638368	     -7.16817620	      4.80170752	      1.23224136	     -3.12341768	      9.82397174	      0.17146065	      3.26202466	    -12.29712580	     -7.16817620	    -14.07333372	      0.49220277	      0.19709499	      2.11364503	     -6.04245621	     -6.60087703	     25.18732362	     80.05573340	      0.79015707	     -7.11507199	     -2.35218001	     28.62383517	     81.61866536
      0.02083330	     -2.79989701	     -0.10138153	     -4.07467256	     -0.91028204	      1.23983827	     -0.06967148	      6.99337202	     -0.47467519	     -1.20865945	     13.40651873	      0.23398789	      3.35391213	    -12.58858182	     -7.17636547	      4.48083168	      1.32366266	     -2.89780642	      9.53227684	      0.16636962	      2.91845398	    -12.79079032	     -7.17636547	    -14.33085961	      0.52400874	      0.21661097	      2.03367872	     -6.00874889	     -6.83268683	     25.36982502	     80.03480846	      0.92799562	     -7.10189663	     -2.49365184	     28.88992685	     81.66861811
      0.02500000	     -2.47136895	     -0.12896625	     -3.92972757	     -0.90972453	      1.24186265	     -0.07075602	      6.32904231	     -0.48723665	     -1.31530098	     12.76784133	      0.22284087	      2.96931330	    -12.23179095	     -7.24863281	      4.04136952	      1.37606540	     -2.73210743	      9.31948609	      0.16265572	      2.44392979	    -13.23813091	     -7.24863281	    -14.85250693	      0.64324299	      0.19445930	      2.13058304	     -5.93573646	     -7.02762489	     25.53006311	     77.27467563	      1.05078503	     -6.95990647	     -2.57250973	     29.18024544	     78.88791646
      0.02916670	     -2.10699527	     -0.12822176	     -3.86070230	     -0.90760826	      1.23930573	     -0.06920028	      5.60388792	     -0.47384104	     -1.35123273	     12.21196897	      0.21313907	      2.62292802	    -12.16385262	     -7.33237806	      3.50275524	      1.40086218	     -2.66409031	      9.11554264	      0.15909623	      2.28116614	    -13.32302270	     -7.33237806	    -15.29867391	      0.63938211	      0.29982886	      2.06202448	     -5.87429074	     -7.99624023	     25.78791874	     81.79143375	      1.03976454	     -6.83548929	     -3.80920465	     29.64756943	     85.17407261
      0.03333330	     -2.09180928	     -0.14553766	     -3.92114696	     -0.90923592	      1.23080948	     -0.06926651	      5.65514101	     -0.42254781	     -1.51642930	     12.22955419	      0.21344599	      2.71932535	    -12.29314637	     -7.33295270	      3.55533584	      1.36001684	     -2.68374619	      9.10960214	      0.15899255	      2.43011348	    -13.39735403	     -7.33295270	    -15.28349688	      0.64177704	      0.35537332	      2.14799883	     -5.87777563	     -7.98964593	     25.87646813	     81.76598333	      1.08361248	     -6.85238677	     -3.81297337	     29.73818514	     85.14490619
      0.03750000	     -2.08945191	     -0.12532327	     -3.92108883	     -0.91003765	      1.23867269	     -0.06790853	      5.68980031	     -0.39732798	     -1.52325835	     12.27176865	      0.21418277	      2.72135045	    -12.27141859	     -7.33326794	      3.61736190	      1.35731991	     -2.67406646	      9.16738984	      0.16000114	      2.42910236	    -13.36505030	     -7.33326794	    -15.27882207	      0.64372152	      0.35888180	      2.14878050	     -5.87641434	     -7.98839824	     25.91708490	     81.74828633	      1.08380037	     -6.84788614	     -3.81217281	     29.77429709	     85.12343390
      0.04166670	     -1.90404895	     -0.16900015	     -3.75475592	     -0.91009698	      1.23701994	     -0.06910232	      5.31100519	     -0.32236966	     -1.70948207	     11.95322526	      0.20862314	      2.48860366	    -13.05828089	     -7.35693996	      3.55376864	      1.33248720	     -2.21575207	      9.38332999	      0.16377000	      2.24090849	    -13.72868945	     -7.35693996	    -15.78617817	      0.65169503	      0.41111069	      2.16347543	     -5.84326672	     -7.65854614	     26.22181953	     80.41525180	      1.18979146	     -6.86549474	     -3.60842253	     30.63846412	     83.79657265
      0.04583330	     -1.89039038	     -0.19977007	     -3.78757718	     -0.91036031	      1.23691803	     -0.06890312	      5.29639666	     -0.24474273	     -1.67030529	     11.96484482	      0.20882594	      2.12517019	    -13.78040826	     -7.36824501	      3.58925686	      1.27960379	     -2.13884234	      9.52579681	      0.16625652	      2.12968902	    -13.84423221	     -7.36824501	    -15.87000893	      0.68677789	      0.41978789	      2.12799050	     -5.87476114	     -7.31738858	     26.40605195	     79.56132325	      1.16292887	     -6.87613975	     -3.41987951	     31.02547862	     83.14126158
      0.05000000	     -1.90820731	     -0.24611490	     -3.76052019	     -0.90967410	      1.23887718	     -0.06882388	      5.18651747	     -0.15267593	     -1.77909715	     11.83821682	      0.20661586	      2.04361708	    -13.86944258	     -7.39099226	      3.57414224	      1.23401360	     -2.00409585	      9.49862908	      0.16578235	      2.29573489	    -13.44187591	     -7.39099226	    -15.84433763	      0.74538354	      0.41308618	      2.08601010	     -5.88466014	     -7.09762747	     26.50556531	     77.98310756	      1.16409709	     -6.91298557	     -3.27153155	     31.29030767	     81.57946717
      0.05416670	     -1.96714773	     -0.26478536	     -3.79591090	     -0.90857309	      1.23388322	     -0.06828042	      5.19384350	     -0.06912298	     -1.54107483	     11.77638634	      0.20553672	      1.87520019	    -14.57395682	     -7.42532792	      3.63613318	      1.18581056	     -1.97892119	      9.59151686	      0.16740355	      2.54987386	    -13.34199150	     -7.42532792	    -15.79449150	      0.76220160	      0.45936153	      1.96659431	     -5.86374041	     -7.95789841	     26.69885594	     83.88722687	      1.03981087	     -6.81440996	     -4.85268975	     31.65151970	     90.86381471
